<svg id="visual" viewBox="0 0 960 300" width="960" height="300" xmlns="http://www.w3.org/2000/svg" xmlns:xlink="http://www.w3.org/1999/xlink" version="1.1"><rect x="0" y="0" width="960" height="300" fill="#0f0f10"></rect><path d="M0 179L22.8 179.7C45.7 180.3 91.3 181.7 137 186.7C182.7 191.7 228.3 200.3 274 205.5C319.7 210.7 365.3 212.3 411.2 207.8C457 203.3 503 192.7 548.8 193.8C594.7 195 640.3 208 686 212C731.7 216 777.3 211 823 205.3C868.7 199.7 914.3 193.3 937.2 190.2L960 187L960 301L937.2 301C914.3 301 868.7 301 823 301C777.3 301 731.7 301 686 301C640.3 301 594.7 301 548.8 301C503 301 457 301 411.2 301C365.3 301 319.7 301 274 301C228.3 301 182.7 301 137 301C91.3 301 45.7 301 22.8 301L0 301Z" fill="#fa7268"></path><path d="M0 218L22.8 214.3C45.7 210.7 91.3 203.3 137 206C182.7 208.7 228.3 221.3 274 225C319.7 228.7 365.3 223.3 411.2 219.3C457 215.3 503 212.7 548.8 213.3C594.7 214 640.3 218 686 217.7C731.7 217.3 777.3 212.7 823 215C868.7 217.3 914.3 226.7 937.2 231.3L960 236L960 301L937.2 301C914.3 301 868.7 301 823 301C777.3 301 731.7 301 686 301C640.3 301 594.7 301 548.8 301C503 301 457 301 411.2 301C365.3 301 319.7 301 274 301C228.3 301 182.7 301 137 301C91.3 301 45.7 301 22.8 301L0 301Z" fill="#f3665b"></path><path d="M0 231L22.8 230.8C45.7 230.7 91.3 230.3 137 232.8C182.7 235.3 228.3 240.7 274 241C319.7 241.3 365.3 236.7 411.2 235.8C457 235 503 238 548.8 241.8C594.7 245.7 640.3 250.3 686 247C731.7 243.7 777.3 232.3 823 228.3C868.7 224.3 914.3 227.7 937.2 229.3L960 231L960 301L937.2 301C914.3 301 868.7 301 823 301C777.3 301 731.7 301 686 301C640.3 301 594.7 301 548.8 301C503 301 457 301 411.2 301C365.3 301 319.7 301 274 301C228.3 301 182.7 301 137 301C91.3 301 45.7 301 22.8 301L0 301Z" fill="#ec594d"></path><path d="M0 264L22.8 264.7C45.7 265.3 91.3 266.7 137 267C182.7 267.3 228.3 266.7 274 262.3C319.7 258 365.3 250 411.2 247.8C457 245.7 503 249.3 548.8 253.7C594.7 258 640.3 263 686 265.3C731.7 267.7 777.3 267.3 823 266C868.7 264.7 914.3 262.3 937.2 261.2L960 260L960 301L937.2 301C914.3 301 868.7 301 823 301C777.3 301 731.7 301 686 301C640.3 301 594.7 301 548.8 301C503 301 457 301 411.2 301C365.3 301 319.7 301 274 301C228.3 301 182.7 301 137 301C91.3 301 45.7 301 22.8 301L0 301Z" fill="#e54c3f"></path><path d="M0 264L22.8 263.7C45.7 263.3 91.3 262.7 137 263.3C182.7 264 228.3 266 274 269.7C319.7 273.3 365.3 278.7 411.2 281.5C457 284.3 503 284.7 548.8 283.7C594.7 282.7 640.3 280.3 686 280.2C731.7 280 777.3 282 823 280.7C868.7 279.3 914.3 274.7 937.2 272.3L960 270L960 301L937.2 301C914.3 301 868.7 301 823 301C777.3 301 731.7 301 686 301C640.3 301 594.7 301 548.8 301C503 301 457 301 411.2 301C365.3 301 319.7 301 274 301C228.3 301 182.7 301 137 301C91.3 301 45.7 301 22.8 301L0 301Z" fill="#dd3f31"></path></svg>